%TF.GenerationSoftware,KiCad,Pcbnew,7.0.7*%
%TF.CreationDate,2023-10-11T17:25:23+01:00*%
%TF.ProjectId,Ru-PerfBoard,52752d50-6572-4664-926f-6172642e6b69,rev?*%
%TF.SameCoordinates,Original*%
%TF.FileFunction,Profile,NP*%
%FSLAX46Y46*%
G04 Gerber Fmt 4.6, Leading zero omitted, Abs format (unit mm)*
G04 Created by KiCad (PCBNEW 7.0.7) date 2023-10-11 17:25:23*
%MOMM*%
%LPD*%
G01*
G04 APERTURE LIST*
%TA.AperFunction,Profile*%
%ADD10C,0.100000*%
%TD*%
G04 APERTURE END LIST*
D10*
X77500000Y-30000000D02*
X172500000Y-30000000D01*
X330000000Y-137500000D02*
G75*
G03*
X327500000Y-135000000I-2500000J0D01*
G01*
X327500000Y-135000000D02*
X310000000Y-135000000D01*
X177500000Y-77500000D02*
G75*
G03*
X180000000Y-80000000I2500000J0D01*
G01*
X280000000Y-137500000D02*
X280000000Y-155000001D01*
X95000000Y-134999999D02*
X77500000Y-135000000D01*
X145000000Y-82500000D02*
G75*
G03*
X145000000Y-80000000I0J1250000D01*
G01*
X310000000Y-132500000D02*
X327500000Y-132500000D01*
X277500000Y-205000000D02*
G75*
G03*
X280000000Y-205000001I1250000J0D01*
G01*
X282500000Y-135000000D02*
X300000000Y-135000000D01*
X227500000Y-130000000D02*
G75*
G03*
X230000000Y-132500000I2500000J0D01*
G01*
X330000000Y-77500000D02*
X330000000Y-32500000D01*
X330000000Y-32500000D02*
G75*
G03*
X327500000Y-30000000I-2500000J0D01*
G01*
X277500000Y-32500000D02*
G75*
G03*
X275000000Y-30000000I-2500000J0D01*
G01*
X175000000Y-215000000D02*
X175000000Y-232500000D01*
X145000000Y-135000000D02*
G75*
G03*
X145000001Y-132500000I0J1250000D01*
G01*
X257500000Y-80000000D02*
X275000000Y-80000000D01*
X145000000Y-80000000D02*
X127500000Y-80000000D01*
X230000000Y-80000000D02*
X225000000Y-80000000D01*
X282500000Y-82500000D02*
X300000000Y-82500000D01*
X280000000Y-215000000D02*
G75*
G03*
X277500000Y-215000000I-1250000J0D01*
G01*
X280000000Y-187500000D02*
X280000000Y-182500000D01*
X277500001Y-205000000D02*
X277500000Y-187500000D01*
X175000000Y-187500000D02*
X175000000Y-182500000D01*
X247500000Y-135000000D02*
G75*
G03*
X247500000Y-132500000I0J1250000D01*
G01*
X207500000Y-132500000D02*
G75*
G03*
X207500000Y-135000000I0J-1250000D01*
G01*
X175000000Y-137500000D02*
G75*
G03*
X172500000Y-135000000I-2500000J0D01*
G01*
X95000000Y-82500000D02*
G75*
G03*
X95000000Y-80000000I0J1250000D01*
G01*
X125000000Y-130000000D02*
G75*
G03*
X127500000Y-132500000I2500000J0D01*
G01*
X177500000Y-130000000D02*
X177500000Y-112500000D01*
X155000000Y-132500000D02*
G75*
G03*
X155000000Y-135000000I0J-1250000D01*
G01*
X180000000Y-30000000D02*
X275000000Y-30000000D01*
X172500000Y-235000000D02*
G75*
G03*
X175000000Y-232500000I0J2500000D01*
G01*
X127500000Y-82500000D02*
X145000000Y-82500000D01*
X310000000Y-80000000D02*
G75*
G03*
X310000000Y-82500000I0J-1250000D01*
G01*
X300000000Y-132500000D02*
X282500000Y-132500000D01*
X75000000Y-130000000D02*
X75000000Y-85000000D01*
X277500000Y-50000000D02*
G75*
G03*
X280000000Y-50000001I1250000J0D01*
G01*
X257500000Y-132500000D02*
X275000000Y-132500000D01*
X105000000Y-80000000D02*
X122500000Y-80000000D01*
X177500000Y-215000000D02*
G75*
G03*
X175000000Y-215000000I-1250000J0D01*
G01*
X177500000Y-232500000D02*
G75*
G03*
X180000000Y-235000000I2500000J0D01*
G01*
X155000000Y-80000000D02*
X172500000Y-80000000D01*
X327500000Y-235000000D02*
G75*
G03*
X330000000Y-232500000I0J2500000D01*
G01*
X280000000Y-182500000D02*
X280000000Y-165000000D01*
X75000000Y-232500000D02*
X75000000Y-137500000D01*
X175000001Y-205000000D02*
X175000000Y-187500000D01*
X275000000Y-235000000D02*
G75*
G03*
X277500000Y-232500000I0J2500000D01*
G01*
X207500000Y-80000000D02*
X225000000Y-80000000D01*
X327500000Y-132500000D02*
G75*
G03*
X330000000Y-130000000I0J2500000D01*
G01*
X77500000Y-82500000D02*
G75*
G03*
X75000000Y-85000000I0J-2500000D01*
G01*
X127500000Y-132500000D02*
X145000001Y-132500000D01*
X177500000Y-112500000D02*
G75*
G03*
X175000000Y-112500000I-1250000J0D01*
G01*
X172500000Y-235000000D02*
X77500000Y-235000000D01*
X127500000Y-82500000D02*
G75*
G03*
X125000000Y-85000000I0J-2500000D01*
G01*
X230000000Y-135000000D02*
X247500000Y-135000000D01*
X77500000Y-132500000D02*
X95000001Y-132500000D01*
X275000000Y-80000000D02*
G75*
G03*
X277500000Y-77500000I0J2500000D01*
G01*
X280000000Y-232500000D02*
G75*
G03*
X282500000Y-235000000I2500000J0D01*
G01*
X175000000Y-85000000D02*
G75*
G03*
X172500000Y-82500000I-2500000J0D01*
G01*
X277500000Y-137500000D02*
G75*
G03*
X275000000Y-135000000I-2500000J0D01*
G01*
X177500000Y-187500000D02*
X177500000Y-205000001D01*
X125000000Y-85000000D02*
G75*
G03*
X122500000Y-82500000I-2500000J0D01*
G01*
X175000001Y-50000000D02*
X175000000Y-32500000D01*
X207500000Y-132500000D02*
X225000000Y-132500000D01*
X225000000Y-135000000D02*
X207500000Y-135000000D01*
X227500000Y-85000000D02*
G75*
G03*
X225000000Y-82500000I-2500000J0D01*
G01*
X175000001Y-155000000D02*
X175000000Y-137500000D01*
X275000000Y-235000000D02*
X180000000Y-235000000D01*
X230000000Y-82500000D02*
X247500000Y-82500000D01*
X177500000Y-232500000D02*
X177500000Y-215000000D01*
X277500001Y-102500000D02*
X277500000Y-85000000D01*
X280000000Y-32500000D02*
X280000000Y-50000001D01*
X75000000Y-77500000D02*
G75*
G03*
X77500000Y-80000000I2500000J0D01*
G01*
X77500000Y-82500000D02*
X95000000Y-82500000D01*
X122500000Y-135000000D02*
X127500000Y-135000000D01*
X197500000Y-132500000D02*
X180000000Y-132500000D01*
X280000000Y-112500000D02*
G75*
G03*
X277500000Y-112500000I-1250000J0D01*
G01*
X177500000Y-137500000D02*
X177500000Y-155000001D01*
X280000000Y-85000000D02*
X280000000Y-102500001D01*
X155000000Y-135000000D02*
X172500000Y-135000000D01*
X277500000Y-60000000D02*
X277500000Y-77500000D01*
X330000000Y-137500000D02*
X330000000Y-232500000D01*
X197500000Y-82500000D02*
G75*
G03*
X197500000Y-80000000I0J1250000D01*
G01*
X122500000Y-80000000D02*
X127500000Y-80000000D01*
X330000000Y-85000000D02*
G75*
G03*
X327500000Y-82500000I-2500000J0D01*
G01*
X282500000Y-30000000D02*
X327500000Y-30000000D01*
X207500000Y-80000000D02*
G75*
G03*
X207500000Y-82500000I0J-1250000D01*
G01*
X175000000Y-32500000D02*
G75*
G03*
X172500000Y-30000000I-2500000J0D01*
G01*
X122500000Y-132500000D02*
G75*
G03*
X125000000Y-130000000I0J2500000D01*
G01*
X300000000Y-80000000D02*
X282500000Y-80000000D01*
X155000000Y-80000000D02*
G75*
G03*
X155000000Y-82500000I0J-1250000D01*
G01*
X175000000Y-112500000D02*
X175000000Y-130000000D01*
X77500000Y-30000000D02*
G75*
G03*
X75000000Y-32500000I0J-2500000D01*
G01*
X230000000Y-135000000D02*
X225000000Y-135000000D01*
X300000000Y-135000000D02*
G75*
G03*
X300000000Y-132500000I0J1250000D01*
G01*
X197500000Y-80000000D02*
X180000000Y-80000000D01*
X75000000Y-77500000D02*
X75000000Y-32500000D01*
X77500000Y-135000000D02*
G75*
G03*
X75000000Y-137500000I0J-2500000D01*
G01*
X310000000Y-80000000D02*
X327500000Y-80000000D01*
X282500000Y-82500000D02*
G75*
G03*
X280000000Y-85000000I0J-2500000D01*
G01*
X280000000Y-165000000D02*
G75*
G03*
X277500000Y-165000000I-1250000J0D01*
G01*
X197500000Y-135000000D02*
G75*
G03*
X197500000Y-132500000I0J1250000D01*
G01*
X175000000Y-205000000D02*
G75*
G03*
X177500000Y-205000001I1250000J0D01*
G01*
X275000000Y-82500000D02*
X257500000Y-82500000D01*
X310000000Y-132500000D02*
G75*
G03*
X310000000Y-135000000I0J-1250000D01*
G01*
X277500000Y-112500000D02*
X277500000Y-130000000D01*
X327500000Y-82500000D02*
X310000000Y-82500000D01*
X280000000Y-77500000D02*
G75*
G03*
X282500000Y-80000000I2500000J0D01*
G01*
X247500000Y-80000000D02*
X230000000Y-80000000D01*
X172500000Y-132500000D02*
X155000000Y-132500000D01*
X175000000Y-165000000D02*
X175000000Y-182500000D01*
X277500000Y-165000000D02*
X277500000Y-182500000D01*
X280000000Y-130000000D02*
G75*
G03*
X282500000Y-132500000I2500000J0D01*
G01*
X95000000Y-80000000D02*
X77500000Y-80000000D01*
X280000000Y-77500000D02*
X280000000Y-60000000D01*
X282500000Y-235000000D02*
X327500000Y-235000000D01*
X75000000Y-130000000D02*
G75*
G03*
X77500000Y-132500000I2500000J0D01*
G01*
X175000001Y-102500000D02*
X175000000Y-85000000D01*
X225000000Y-132500000D02*
G75*
G03*
X227500000Y-130000000I0J2500000D01*
G01*
X177500000Y-165000000D02*
G75*
G03*
X175000000Y-165000000I-1250000J0D01*
G01*
X277500001Y-50000000D02*
X277500000Y-32500000D01*
X145000000Y-134999999D02*
X127500000Y-135000000D01*
X177500000Y-32500000D02*
X177500000Y-50000001D01*
X177500000Y-85000000D02*
X177500000Y-102500001D01*
X277500000Y-85000000D02*
G75*
G03*
X275000000Y-82500000I-2500000J0D01*
G01*
X75000000Y-232500000D02*
G75*
G03*
X77500000Y-235000000I2500000J0D01*
G01*
X177500000Y-182500000D02*
X177500000Y-165000000D01*
X172500000Y-80000000D02*
G75*
G03*
X175000000Y-77500000I0J2500000D01*
G01*
X95000000Y-135000000D02*
G75*
G03*
X95000001Y-132500000I0J1250000D01*
G01*
X257500000Y-132500000D02*
G75*
G03*
X257500000Y-135000000I0J-1250000D01*
G01*
X180000000Y-30000000D02*
G75*
G03*
X177500000Y-32500000I0J-2500000D01*
G01*
X172500000Y-82500000D02*
X155000000Y-82500000D01*
X180000000Y-82500000D02*
X197500000Y-82500000D01*
X327500000Y-80000000D02*
G75*
G03*
X330000000Y-77500000I0J2500000D01*
G01*
X175000000Y-155000000D02*
G75*
G03*
X177500000Y-155000001I1250000J0D01*
G01*
X275000000Y-135000000D02*
X257500000Y-135000000D01*
X105000000Y-132500000D02*
G75*
G03*
X105000000Y-135000000I0J-1250000D01*
G01*
X230000000Y-82500000D02*
G75*
G03*
X227500000Y-85000000I0J-2500000D01*
G01*
X105000000Y-135000000D02*
X122500000Y-135000000D01*
X300000000Y-82500000D02*
G75*
G03*
X300000000Y-80000000I0J1250000D01*
G01*
X122500000Y-82500000D02*
X105000000Y-82500000D01*
X247500000Y-82500000D02*
G75*
G03*
X247500000Y-80000000I0J1250000D01*
G01*
X282500000Y-135000000D02*
G75*
G03*
X280000000Y-137500000I0J-2500000D01*
G01*
X277500000Y-155000000D02*
G75*
G03*
X280000000Y-155000001I1250000J0D01*
G01*
X175000000Y-60000000D02*
X175000000Y-77500000D01*
X282500000Y-30000000D02*
G75*
G03*
X280000000Y-32500000I0J-2500000D01*
G01*
X122500000Y-132500000D02*
X105000000Y-132500000D01*
X280000000Y-60000000D02*
G75*
G03*
X277500000Y-60000000I-1250000J0D01*
G01*
X247500000Y-132500000D02*
X230000000Y-132500000D01*
X175000000Y-50000000D02*
G75*
G03*
X177500000Y-50000001I1250000J0D01*
G01*
X277500001Y-155000000D02*
X277500000Y-137500000D01*
X280000000Y-187500000D02*
X280000000Y-205000001D01*
X277500000Y-182500000D02*
X277500000Y-187500000D01*
X180000000Y-135000000D02*
X197500000Y-135000000D01*
X277500000Y-215000000D02*
X277500000Y-232500000D01*
X180000000Y-135000000D02*
G75*
G03*
X177500000Y-137500000I0J-2500000D01*
G01*
X280000000Y-130000000D02*
X280000000Y-112500000D01*
X177500000Y-182500000D02*
X177500000Y-187500000D01*
X225000000Y-82500000D02*
X207500000Y-82500000D01*
X275000000Y-132500000D02*
G75*
G03*
X277500000Y-130000000I0J2500000D01*
G01*
X175000000Y-102500000D02*
G75*
G03*
X177500000Y-102500001I1250000J0D01*
G01*
X330000000Y-130000000D02*
X330000000Y-85000000D01*
X277500000Y-102500000D02*
G75*
G03*
X280000000Y-102500001I1250000J0D01*
G01*
X105000000Y-80000000D02*
G75*
G03*
X105000000Y-82500000I0J-1250000D01*
G01*
X180000000Y-82500000D02*
G75*
G03*
X177500000Y-85000000I0J-2500000D01*
G01*
X257500000Y-80000000D02*
G75*
G03*
X257500000Y-82500000I0J-1250000D01*
G01*
X280000000Y-232500000D02*
X280000000Y-215000000D01*
X172500000Y-132500000D02*
G75*
G03*
X175000000Y-130000000I0J2500000D01*
G01*
X177500000Y-60000000D02*
G75*
G03*
X175000000Y-60000000I-1250000J0D01*
G01*
X177500000Y-130000000D02*
G75*
G03*
X180000000Y-132500000I2500000J0D01*
G01*
X177500000Y-77500000D02*
X177500000Y-60000000D01*
M02*
