%TF.GenerationSoftware,KiCad,Pcbnew,7.0.7*%
%TF.CreationDate,2023-10-11T15:53:21+01:00*%
%TF.ProjectId,Ru-PerfBoard,52752d50-6572-4664-926f-6172642e6b69,rev?*%
%TF.SameCoordinates,Original*%
%TF.FileFunction,Drillmap*%
%TF.FilePolarity,Positive*%
%FSLAX45Y45*%
G04 Gerber Fmt 4.5, Leading zero omitted, Abs format (unit mm)*
G04 Created by KiCad (PCBNEW 7.0.7) date 2023-10-11 15:53:21*
%MOMM*%
%LPD*%
G01*
G04 APERTURE LIST*
%ADD10C,0.100000*%
%ADD11C,0.200000*%
%ADD12C,0.270000*%
G04 APERTURE END LIST*
D10*
X7750000Y-3000000D02*
X17250000Y-3000000D01*
X33000000Y-13750000D02*
G75*
G03*
X32750000Y-13500000I-250000J0D01*
G01*
X32750000Y-13500000D02*
X31000000Y-13500000D01*
X17750000Y-7750000D02*
G75*
G03*
X18000000Y-8000000I250000J0D01*
G01*
X28000000Y-13750000D02*
X28000000Y-15500000D01*
X9500000Y-13500000D02*
X7750000Y-13500000D01*
X14500000Y-8250000D02*
G75*
G03*
X14500000Y-8000000I0J125000D01*
G01*
X31000000Y-13250000D02*
X32750000Y-13250000D01*
X27750000Y-20500000D02*
G75*
G03*
X28000000Y-20500000I125000J0D01*
G01*
X28250000Y-13500000D02*
X30000000Y-13500000D01*
X22750000Y-13000000D02*
G75*
G03*
X23000000Y-13250000I250000J0D01*
G01*
X33000000Y-7750000D02*
X33000000Y-3250000D01*
X33000000Y-3250000D02*
G75*
G03*
X32750000Y-3000000I-250000J0D01*
G01*
X27750000Y-3250000D02*
G75*
G03*
X27500000Y-3000000I-250000J0D01*
G01*
X17500000Y-21500000D02*
X17500000Y-23250000D01*
X14500000Y-13500000D02*
G75*
G03*
X14500000Y-13250000I0J125000D01*
G01*
X25750000Y-8000000D02*
X27500000Y-8000000D01*
X14500000Y-8000000D02*
X12750000Y-8000000D01*
X23000000Y-8000000D02*
X22500000Y-8000000D01*
X28250000Y-8250000D02*
X30000000Y-8250000D01*
X28000000Y-21500000D02*
G75*
G03*
X27750000Y-21500000I-125000J0D01*
G01*
X28000000Y-18750000D02*
X28000000Y-18250000D01*
X27750000Y-20500000D02*
X27750000Y-18750000D01*
X17500000Y-18750000D02*
X17500000Y-18250000D01*
X24750000Y-13500000D02*
G75*
G03*
X24750000Y-13250000I0J125000D01*
G01*
X20750000Y-13250000D02*
G75*
G03*
X20750000Y-13500000I0J-125000D01*
G01*
X17500000Y-13750000D02*
G75*
G03*
X17250000Y-13500000I-250000J0D01*
G01*
X9500000Y-8250000D02*
G75*
G03*
X9500000Y-8000000I0J125000D01*
G01*
X12500000Y-13000000D02*
G75*
G03*
X12750000Y-13250000I250000J0D01*
G01*
X17750000Y-13000000D02*
X17750000Y-11250000D01*
X15500000Y-13250000D02*
G75*
G03*
X15500000Y-13500000I0J-125000D01*
G01*
X18000000Y-3000000D02*
X27500000Y-3000000D01*
X17250000Y-23500000D02*
G75*
G03*
X17500000Y-23250000I0J250000D01*
G01*
X12750000Y-8250000D02*
X14500000Y-8250000D01*
X31000000Y-8000000D02*
G75*
G03*
X31000000Y-8250000I0J-125000D01*
G01*
X30000000Y-13250000D02*
X28250000Y-13250000D01*
X7500000Y-13000000D02*
X7500000Y-8500000D01*
X27750000Y-5000000D02*
G75*
G03*
X28000000Y-5000000I125000J0D01*
G01*
X25750000Y-13250000D02*
X27500000Y-13250000D01*
X10500000Y-8000000D02*
X12250000Y-8000000D01*
X17750000Y-21500000D02*
G75*
G03*
X17500000Y-21500000I-125000J0D01*
G01*
X17750000Y-23250000D02*
G75*
G03*
X18000000Y-23500000I250000J0D01*
G01*
X15500000Y-8000000D02*
X17250000Y-8000000D01*
X32750000Y-23500000D02*
G75*
G03*
X33000000Y-23250000I0J250000D01*
G01*
X28000000Y-18250000D02*
X28000000Y-16500000D01*
X7500000Y-23250000D02*
X7500000Y-13750000D01*
X17500000Y-20500000D02*
X17500000Y-18750000D01*
X27500000Y-23500000D02*
G75*
G03*
X27750000Y-23250000I0J250000D01*
G01*
X20750000Y-8000000D02*
X22500000Y-8000000D01*
X32750000Y-13250000D02*
G75*
G03*
X33000000Y-13000000I0J250000D01*
G01*
X7750000Y-8250000D02*
G75*
G03*
X7500000Y-8500000I0J-250000D01*
G01*
X12750000Y-13250000D02*
X14500000Y-13250000D01*
X17750000Y-11250000D02*
G75*
G03*
X17500000Y-11250000I-125000J0D01*
G01*
X17250000Y-23500000D02*
X7750000Y-23500000D01*
X12750000Y-8250000D02*
G75*
G03*
X12500000Y-8500000I0J-250000D01*
G01*
X23000000Y-13500000D02*
X24750000Y-13500000D01*
X7750000Y-13250000D02*
X9500000Y-13250000D01*
X27500000Y-8000000D02*
G75*
G03*
X27750000Y-7750000I0J250000D01*
G01*
X28000000Y-23250000D02*
G75*
G03*
X28250000Y-23500000I250000J0D01*
G01*
X17500000Y-8500000D02*
G75*
G03*
X17250000Y-8250000I-250000J0D01*
G01*
X27750000Y-13750000D02*
G75*
G03*
X27500000Y-13500000I-250000J0D01*
G01*
X17750000Y-18750000D02*
X17750000Y-20500000D01*
X12500000Y-8500000D02*
G75*
G03*
X12250000Y-8250000I-250000J0D01*
G01*
X17500000Y-5000000D02*
X17500000Y-3250000D01*
X20750000Y-13250000D02*
X22500000Y-13250000D01*
X22500000Y-13500000D02*
X20750000Y-13500000D01*
X22750000Y-8500000D02*
G75*
G03*
X22500000Y-8250000I-250000J0D01*
G01*
X17500000Y-15500000D02*
X17500000Y-13750000D01*
X27500000Y-23500000D02*
X18000000Y-23500000D01*
X23000000Y-8250000D02*
X24750000Y-8250000D01*
X17750000Y-23250000D02*
X17750000Y-21500000D01*
X27750000Y-10250000D02*
X27750000Y-8500000D01*
X28000000Y-3250000D02*
X28000000Y-5000000D01*
X7500000Y-7750000D02*
G75*
G03*
X7750000Y-8000000I250000J0D01*
G01*
X7750000Y-8250000D02*
X9500000Y-8250000D01*
X12250000Y-13500000D02*
X12750000Y-13500000D01*
X19750000Y-13250000D02*
X18000000Y-13250000D01*
X28000000Y-11250000D02*
G75*
G03*
X27750000Y-11250000I-125000J0D01*
G01*
X17750000Y-13750000D02*
X17750000Y-15500000D01*
X28000000Y-8500000D02*
X28000000Y-10250000D01*
X15500000Y-13500000D02*
X17250000Y-13500000D01*
X27750000Y-6000000D02*
X27750000Y-7750000D01*
X33000000Y-13750000D02*
X33000000Y-23250000D01*
X19750000Y-8250000D02*
G75*
G03*
X19750000Y-8000000I0J125000D01*
G01*
X12250000Y-8000000D02*
X12750000Y-8000000D01*
X33000000Y-8500000D02*
G75*
G03*
X32750000Y-8250000I-250000J0D01*
G01*
X28250000Y-3000000D02*
X32750000Y-3000000D01*
X20750000Y-8000000D02*
G75*
G03*
X20750000Y-8250000I0J-125000D01*
G01*
X17500000Y-3250000D02*
G75*
G03*
X17250000Y-3000000I-250000J0D01*
G01*
X12250000Y-13250000D02*
G75*
G03*
X12500000Y-13000000I0J250000D01*
G01*
X30000000Y-8000000D02*
X28250000Y-8000000D01*
X15500000Y-8000000D02*
G75*
G03*
X15500000Y-8250000I0J-125000D01*
G01*
X17500000Y-11250000D02*
X17500000Y-13000000D01*
X7750000Y-3000000D02*
G75*
G03*
X7500000Y-3250000I0J-250000D01*
G01*
X23000000Y-13500000D02*
X22500000Y-13500000D01*
X30000000Y-13500000D02*
G75*
G03*
X30000000Y-13250000I0J125000D01*
G01*
X19750000Y-8000000D02*
X18000000Y-8000000D01*
X7500000Y-7750000D02*
X7500000Y-3250000D01*
X7750000Y-13500000D02*
G75*
G03*
X7500000Y-13750000I0J-250000D01*
G01*
X31000000Y-8000000D02*
X32750000Y-8000000D01*
X28250000Y-8250000D02*
G75*
G03*
X28000000Y-8500000I0J-250000D01*
G01*
X28000000Y-16500000D02*
G75*
G03*
X27750000Y-16500000I-125000J0D01*
G01*
X19750000Y-13500000D02*
G75*
G03*
X19750000Y-13250000I0J125000D01*
G01*
X17500000Y-20500000D02*
G75*
G03*
X17750000Y-20500000I125000J0D01*
G01*
X27500000Y-8250000D02*
X25750000Y-8250000D01*
X31000000Y-13250000D02*
G75*
G03*
X31000000Y-13500000I0J-125000D01*
G01*
X27750000Y-11250000D02*
X27750000Y-13000000D01*
X32750000Y-8250000D02*
X31000000Y-8250000D01*
X28000000Y-7750000D02*
G75*
G03*
X28250000Y-8000000I250000J0D01*
G01*
X24750000Y-8000000D02*
X23000000Y-8000000D01*
X17250000Y-13250000D02*
X15500000Y-13250000D01*
X17500000Y-16500000D02*
X17500000Y-18250000D01*
X27750000Y-16500000D02*
X27750000Y-18250000D01*
X28000000Y-13000000D02*
G75*
G03*
X28250000Y-13250000I250000J0D01*
G01*
X9500000Y-8000000D02*
X7750000Y-8000000D01*
X28000000Y-7750000D02*
X28000000Y-6000000D01*
X28250000Y-23500000D02*
X32750000Y-23500000D01*
X7500000Y-13000000D02*
G75*
G03*
X7750000Y-13250000I250000J0D01*
G01*
X17500000Y-10250000D02*
X17500000Y-8500000D01*
X22500000Y-13250000D02*
G75*
G03*
X22750000Y-13000000I0J250000D01*
G01*
X17750000Y-16500000D02*
G75*
G03*
X17500000Y-16500000I-125000J0D01*
G01*
X27750000Y-5000000D02*
X27750000Y-3250000D01*
X14500000Y-13500000D02*
X12750000Y-13500000D01*
X17750000Y-3250000D02*
X17750000Y-5000000D01*
X17750000Y-8500000D02*
X17750000Y-10250000D01*
X27750000Y-8500000D02*
G75*
G03*
X27500000Y-8250000I-250000J0D01*
G01*
X7500000Y-23250000D02*
G75*
G03*
X7750000Y-23500000I250000J0D01*
G01*
X17750000Y-18250000D02*
X17750000Y-16500000D01*
X17250000Y-8000000D02*
G75*
G03*
X17500000Y-7750000I0J250000D01*
G01*
X9500000Y-13500000D02*
G75*
G03*
X9500000Y-13250000I0J125000D01*
G01*
X25750000Y-13250000D02*
G75*
G03*
X25750000Y-13500000I0J-125000D01*
G01*
X18000000Y-3000000D02*
G75*
G03*
X17750000Y-3250000I0J-250000D01*
G01*
X17250000Y-8250000D02*
X15500000Y-8250000D01*
X18000000Y-8250000D02*
X19750000Y-8250000D01*
X32750000Y-8000000D02*
G75*
G03*
X33000000Y-7750000I0J250000D01*
G01*
X17500000Y-15500000D02*
G75*
G03*
X17750000Y-15500000I125000J0D01*
G01*
X27500000Y-13500000D02*
X25750000Y-13500000D01*
X10500000Y-13250000D02*
G75*
G03*
X10500000Y-13500000I0J-125000D01*
G01*
X23000000Y-8250000D02*
G75*
G03*
X22750000Y-8500000I0J-250000D01*
G01*
X10500000Y-13500000D02*
X12250000Y-13500000D01*
X30000000Y-8250000D02*
G75*
G03*
X30000000Y-8000000I0J125000D01*
G01*
X12250000Y-8250000D02*
X10500000Y-8250000D01*
X24750000Y-8250000D02*
G75*
G03*
X24750000Y-8000000I0J125000D01*
G01*
X28250000Y-13500000D02*
G75*
G03*
X28000000Y-13750000I0J-250000D01*
G01*
X27750000Y-15500000D02*
G75*
G03*
X28000000Y-15500000I125000J0D01*
G01*
X17500000Y-6000000D02*
X17500000Y-7750000D01*
X28250000Y-3000000D02*
G75*
G03*
X28000000Y-3250000I0J-250000D01*
G01*
X12250000Y-13250000D02*
X10500000Y-13250000D01*
X28000000Y-6000000D02*
G75*
G03*
X27750000Y-6000000I-125000J0D01*
G01*
X24750000Y-13250000D02*
X23000000Y-13250000D01*
X17500000Y-5000000D02*
G75*
G03*
X17750000Y-5000000I125000J0D01*
G01*
X27750000Y-15500000D02*
X27750000Y-13750000D01*
X28000000Y-18750000D02*
X28000000Y-20500000D01*
X27750000Y-18250000D02*
X27750000Y-18750000D01*
X18000000Y-13500000D02*
X19750000Y-13500000D01*
X27750000Y-21500000D02*
X27750000Y-23250000D01*
X18000000Y-13500000D02*
G75*
G03*
X17750000Y-13750000I0J-250000D01*
G01*
X28000000Y-13000000D02*
X28000000Y-11250000D01*
X17750000Y-18250000D02*
X17750000Y-18750000D01*
X22500000Y-8250000D02*
X20750000Y-8250000D01*
X27500000Y-13250000D02*
G75*
G03*
X27750000Y-13000000I0J250000D01*
G01*
X17500000Y-10250000D02*
G75*
G03*
X17750000Y-10250000I125000J0D01*
G01*
X33000000Y-13000000D02*
X33000000Y-8500000D01*
X27750000Y-10250000D02*
G75*
G03*
X28000000Y-10250000I125000J0D01*
G01*
X10500000Y-8000000D02*
G75*
G03*
X10500000Y-8250000I0J-125000D01*
G01*
X18000000Y-8250000D02*
G75*
G03*
X17750000Y-8500000I0J-250000D01*
G01*
X25750000Y-8000000D02*
G75*
G03*
X25750000Y-8250000I0J-125000D01*
G01*
X28000000Y-23250000D02*
X28000000Y-21500000D01*
X17250000Y-13250000D02*
G75*
G03*
X17500000Y-13000000I0J250000D01*
G01*
X17750000Y-6000000D02*
G75*
G03*
X17500000Y-6000000I-125000J0D01*
G01*
X17750000Y-13000000D02*
G75*
G03*
X18000000Y-13250000I250000J0D01*
G01*
X17750000Y-7750000D02*
X17750000Y-6000000D01*
D11*
D12*
X7615000Y-3115000D02*
X7885000Y-3385000D01*
X7885000Y-3115000D02*
X7615000Y-3385000D01*
X7615000Y-7615000D02*
X7885000Y-7885000D01*
X7885000Y-7615000D02*
X7615000Y-7885000D01*
X7615000Y-8365000D02*
X7885000Y-8635000D01*
X7885000Y-8365000D02*
X7615000Y-8635000D01*
X7615000Y-12865000D02*
X7885000Y-13135000D01*
X7885000Y-12865000D02*
X7615000Y-13135000D01*
X7615000Y-13615000D02*
X7885000Y-13885000D01*
X7885000Y-13615000D02*
X7615000Y-13885000D01*
X7615000Y-23115000D02*
X7885000Y-23385000D01*
X7885000Y-23115000D02*
X7615000Y-23385000D01*
X12115000Y-8365000D02*
X12385000Y-8635000D01*
X12385000Y-8365000D02*
X12115000Y-8635000D01*
X12115000Y-12865000D02*
X12385000Y-13135000D01*
X12385000Y-12865000D02*
X12115000Y-13135000D01*
X12615000Y-8365000D02*
X12885000Y-8635000D01*
X12885000Y-8365000D02*
X12615000Y-8635000D01*
X12615000Y-12865000D02*
X12885000Y-13135000D01*
X12885000Y-12865000D02*
X12615000Y-13135000D01*
X17115000Y-3115000D02*
X17385000Y-3385000D01*
X17385000Y-3115000D02*
X17115000Y-3385000D01*
X17115000Y-7615000D02*
X17385000Y-7885000D01*
X17385000Y-7615000D02*
X17115000Y-7885000D01*
X17115000Y-8365000D02*
X17385000Y-8635000D01*
X17385000Y-8365000D02*
X17115000Y-8635000D01*
X17115000Y-12865000D02*
X17385000Y-13135000D01*
X17385000Y-12865000D02*
X17115000Y-13135000D01*
X17115000Y-13615000D02*
X17385000Y-13885000D01*
X17385000Y-13615000D02*
X17115000Y-13885000D01*
X17115000Y-23115000D02*
X17385000Y-23385000D01*
X17385000Y-23115000D02*
X17115000Y-23385000D01*
X17865000Y-3115000D02*
X18135000Y-3385000D01*
X18135000Y-3115000D02*
X17865000Y-3385000D01*
X17865000Y-7615000D02*
X18135000Y-7885000D01*
X18135000Y-7615000D02*
X17865000Y-7885000D01*
X17865000Y-8365000D02*
X18135000Y-8635000D01*
X18135000Y-8365000D02*
X17865000Y-8635000D01*
X17865000Y-12865000D02*
X18135000Y-13135000D01*
X18135000Y-12865000D02*
X17865000Y-13135000D01*
X17865000Y-13615000D02*
X18135000Y-13885000D01*
X18135000Y-13615000D02*
X17865000Y-13885000D01*
X17865000Y-23115000D02*
X18135000Y-23385000D01*
X18135000Y-23115000D02*
X17865000Y-23385000D01*
X22365000Y-8365000D02*
X22635000Y-8635000D01*
X22635000Y-8365000D02*
X22365000Y-8635000D01*
X22365000Y-12865000D02*
X22635000Y-13135000D01*
X22635000Y-12865000D02*
X22365000Y-13135000D01*
X22865000Y-8365000D02*
X23135000Y-8635000D01*
X23135000Y-8365000D02*
X22865000Y-8635000D01*
X22865000Y-12865000D02*
X23135000Y-13135000D01*
X23135000Y-12865000D02*
X22865000Y-13135000D01*
X27365000Y-3115000D02*
X27635000Y-3385000D01*
X27635000Y-3115000D02*
X27365000Y-3385000D01*
X27365000Y-7615000D02*
X27635000Y-7885000D01*
X27635000Y-7615000D02*
X27365000Y-7885000D01*
X27365000Y-8365000D02*
X27635000Y-8635000D01*
X27635000Y-8365000D02*
X27365000Y-8635000D01*
X27365000Y-12865000D02*
X27635000Y-13135000D01*
X27635000Y-12865000D02*
X27365000Y-13135000D01*
X27365000Y-13615000D02*
X27635000Y-13885000D01*
X27635000Y-13615000D02*
X27365000Y-13885000D01*
X27365000Y-23115000D02*
X27635000Y-23385000D01*
X27635000Y-23115000D02*
X27365000Y-23385000D01*
X28115000Y-3115000D02*
X28385000Y-3385000D01*
X28385000Y-3115000D02*
X28115000Y-3385000D01*
X28115000Y-7615000D02*
X28385000Y-7885000D01*
X28385000Y-7615000D02*
X28115000Y-7885000D01*
X28115000Y-8365000D02*
X28385000Y-8635000D01*
X28385000Y-8365000D02*
X28115000Y-8635000D01*
X28115000Y-12865000D02*
X28385000Y-13135000D01*
X28385000Y-12865000D02*
X28115000Y-13135000D01*
X28115000Y-13615000D02*
X28385000Y-13885000D01*
X28385000Y-13615000D02*
X28115000Y-13885000D01*
X28115000Y-23115000D02*
X28385000Y-23385000D01*
X28385000Y-23115000D02*
X28115000Y-23385000D01*
X32615000Y-3115000D02*
X32885000Y-3385000D01*
X32885000Y-3115000D02*
X32615000Y-3385000D01*
X32615000Y-7615000D02*
X32885000Y-7885000D01*
X32885000Y-7615000D02*
X32615000Y-7885000D01*
X32615000Y-8365000D02*
X32885000Y-8635000D01*
X32885000Y-8365000D02*
X32615000Y-8635000D01*
X32615000Y-12865000D02*
X32885000Y-13135000D01*
X32885000Y-12865000D02*
X32615000Y-13135000D01*
X32615000Y-13615000D02*
X32885000Y-13885000D01*
X32885000Y-13615000D02*
X32615000Y-13885000D01*
X32615000Y-23115000D02*
X32885000Y-23385000D01*
X32885000Y-23115000D02*
X32615000Y-23385000D01*
D11*
X7755777Y-23816484D02*
X7755777Y-23616484D01*
X7755777Y-23616484D02*
X7803396Y-23616484D01*
X7803396Y-23616484D02*
X7831967Y-23626008D01*
X7831967Y-23626008D02*
X7851015Y-23645055D01*
X7851015Y-23645055D02*
X7860539Y-23664103D01*
X7860539Y-23664103D02*
X7870062Y-23702198D01*
X7870062Y-23702198D02*
X7870062Y-23730769D01*
X7870062Y-23730769D02*
X7860539Y-23768865D01*
X7860539Y-23768865D02*
X7851015Y-23787912D01*
X7851015Y-23787912D02*
X7831967Y-23806960D01*
X7831967Y-23806960D02*
X7803396Y-23816484D01*
X7803396Y-23816484D02*
X7755777Y-23816484D01*
X7955777Y-23816484D02*
X7955777Y-23683150D01*
X7955777Y-23721246D02*
X7965301Y-23702198D01*
X7965301Y-23702198D02*
X7974824Y-23692674D01*
X7974824Y-23692674D02*
X7993872Y-23683150D01*
X7993872Y-23683150D02*
X8012920Y-23683150D01*
X8079586Y-23816484D02*
X8079586Y-23683150D01*
X8079586Y-23616484D02*
X8070062Y-23626008D01*
X8070062Y-23626008D02*
X8079586Y-23635531D01*
X8079586Y-23635531D02*
X8089110Y-23626008D01*
X8089110Y-23626008D02*
X8079586Y-23616484D01*
X8079586Y-23616484D02*
X8079586Y-23635531D01*
X8203396Y-23816484D02*
X8184348Y-23806960D01*
X8184348Y-23806960D02*
X8174824Y-23787912D01*
X8174824Y-23787912D02*
X8174824Y-23616484D01*
X8308158Y-23816484D02*
X8289110Y-23806960D01*
X8289110Y-23806960D02*
X8279586Y-23787912D01*
X8279586Y-23787912D02*
X8279586Y-23616484D01*
X8536729Y-23816484D02*
X8536729Y-23616484D01*
X8536729Y-23616484D02*
X8603396Y-23759341D01*
X8603396Y-23759341D02*
X8670063Y-23616484D01*
X8670063Y-23616484D02*
X8670063Y-23816484D01*
X8851015Y-23816484D02*
X8851015Y-23711722D01*
X8851015Y-23711722D02*
X8841491Y-23692674D01*
X8841491Y-23692674D02*
X8822444Y-23683150D01*
X8822444Y-23683150D02*
X8784348Y-23683150D01*
X8784348Y-23683150D02*
X8765301Y-23692674D01*
X8851015Y-23806960D02*
X8831967Y-23816484D01*
X8831967Y-23816484D02*
X8784348Y-23816484D01*
X8784348Y-23816484D02*
X8765301Y-23806960D01*
X8765301Y-23806960D02*
X8755777Y-23787912D01*
X8755777Y-23787912D02*
X8755777Y-23768865D01*
X8755777Y-23768865D02*
X8765301Y-23749817D01*
X8765301Y-23749817D02*
X8784348Y-23740293D01*
X8784348Y-23740293D02*
X8831967Y-23740293D01*
X8831967Y-23740293D02*
X8851015Y-23730769D01*
X8946253Y-23683150D02*
X8946253Y-23883150D01*
X8946253Y-23692674D02*
X8965301Y-23683150D01*
X8965301Y-23683150D02*
X9003396Y-23683150D01*
X9003396Y-23683150D02*
X9022444Y-23692674D01*
X9022444Y-23692674D02*
X9031967Y-23702198D01*
X9031967Y-23702198D02*
X9041491Y-23721246D01*
X9041491Y-23721246D02*
X9041491Y-23778388D01*
X9041491Y-23778388D02*
X9031967Y-23797436D01*
X9031967Y-23797436D02*
X9022444Y-23806960D01*
X9022444Y-23806960D02*
X9003396Y-23816484D01*
X9003396Y-23816484D02*
X8965301Y-23816484D01*
X8965301Y-23816484D02*
X8946253Y-23806960D01*
X9127205Y-23797436D02*
X9136729Y-23806960D01*
X9136729Y-23806960D02*
X9127205Y-23816484D01*
X9127205Y-23816484D02*
X9117682Y-23806960D01*
X9117682Y-23806960D02*
X9127205Y-23797436D01*
X9127205Y-23797436D02*
X9127205Y-23816484D01*
X9127205Y-23692674D02*
X9136729Y-23702198D01*
X9136729Y-23702198D02*
X9127205Y-23711722D01*
X9127205Y-23711722D02*
X9117682Y-23702198D01*
X9117682Y-23702198D02*
X9127205Y-23692674D01*
X9127205Y-23692674D02*
X9127205Y-23711722D01*
X7295000Y-24045000D02*
X7495000Y-24245000D01*
X7495000Y-24045000D02*
X7295000Y-24245000D01*
X7746253Y-24055531D02*
X7755777Y-24046008D01*
X7755777Y-24046008D02*
X7774824Y-24036484D01*
X7774824Y-24036484D02*
X7822443Y-24036484D01*
X7822443Y-24036484D02*
X7841491Y-24046008D01*
X7841491Y-24046008D02*
X7851015Y-24055531D01*
X7851015Y-24055531D02*
X7860539Y-24074579D01*
X7860539Y-24074579D02*
X7860539Y-24093627D01*
X7860539Y-24093627D02*
X7851015Y-24122198D01*
X7851015Y-24122198D02*
X7736729Y-24236484D01*
X7736729Y-24236484D02*
X7860539Y-24236484D01*
X7946253Y-24217436D02*
X7955777Y-24226960D01*
X7955777Y-24226960D02*
X7946253Y-24236484D01*
X7946253Y-24236484D02*
X7936729Y-24226960D01*
X7936729Y-24226960D02*
X7946253Y-24217436D01*
X7946253Y-24217436D02*
X7946253Y-24236484D01*
X8022443Y-24036484D02*
X8155777Y-24036484D01*
X8155777Y-24036484D02*
X8070062Y-24236484D01*
X8270062Y-24036484D02*
X8289110Y-24036484D01*
X8289110Y-24036484D02*
X8308158Y-24046008D01*
X8308158Y-24046008D02*
X8317682Y-24055531D01*
X8317682Y-24055531D02*
X8327205Y-24074579D01*
X8327205Y-24074579D02*
X8336729Y-24112674D01*
X8336729Y-24112674D02*
X8336729Y-24160293D01*
X8336729Y-24160293D02*
X8327205Y-24198388D01*
X8327205Y-24198388D02*
X8317682Y-24217436D01*
X8317682Y-24217436D02*
X8308158Y-24226960D01*
X8308158Y-24226960D02*
X8289110Y-24236484D01*
X8289110Y-24236484D02*
X8270062Y-24236484D01*
X8270062Y-24236484D02*
X8251015Y-24226960D01*
X8251015Y-24226960D02*
X8241491Y-24217436D01*
X8241491Y-24217436D02*
X8231967Y-24198388D01*
X8231967Y-24198388D02*
X8222443Y-24160293D01*
X8222443Y-24160293D02*
X8222443Y-24112674D01*
X8222443Y-24112674D02*
X8231967Y-24074579D01*
X8231967Y-24074579D02*
X8241491Y-24055531D01*
X8241491Y-24055531D02*
X8251015Y-24046008D01*
X8251015Y-24046008D02*
X8270062Y-24036484D01*
X8460539Y-24036484D02*
X8479586Y-24036484D01*
X8479586Y-24036484D02*
X8498634Y-24046008D01*
X8498634Y-24046008D02*
X8508158Y-24055531D01*
X8508158Y-24055531D02*
X8517682Y-24074579D01*
X8517682Y-24074579D02*
X8527205Y-24112674D01*
X8527205Y-24112674D02*
X8527205Y-24160293D01*
X8527205Y-24160293D02*
X8517682Y-24198388D01*
X8517682Y-24198388D02*
X8508158Y-24217436D01*
X8508158Y-24217436D02*
X8498634Y-24226960D01*
X8498634Y-24226960D02*
X8479586Y-24236484D01*
X8479586Y-24236484D02*
X8460539Y-24236484D01*
X8460539Y-24236484D02*
X8441491Y-24226960D01*
X8441491Y-24226960D02*
X8431967Y-24217436D01*
X8431967Y-24217436D02*
X8422444Y-24198388D01*
X8422444Y-24198388D02*
X8412920Y-24160293D01*
X8412920Y-24160293D02*
X8412920Y-24112674D01*
X8412920Y-24112674D02*
X8422444Y-24074579D01*
X8422444Y-24074579D02*
X8431967Y-24055531D01*
X8431967Y-24055531D02*
X8441491Y-24046008D01*
X8441491Y-24046008D02*
X8460539Y-24036484D01*
X8612920Y-24236484D02*
X8612920Y-24103150D01*
X8612920Y-24122198D02*
X8622444Y-24112674D01*
X8622444Y-24112674D02*
X8641491Y-24103150D01*
X8641491Y-24103150D02*
X8670063Y-24103150D01*
X8670063Y-24103150D02*
X8689110Y-24112674D01*
X8689110Y-24112674D02*
X8698634Y-24131722D01*
X8698634Y-24131722D02*
X8698634Y-24236484D01*
X8698634Y-24131722D02*
X8708158Y-24112674D01*
X8708158Y-24112674D02*
X8727205Y-24103150D01*
X8727205Y-24103150D02*
X8755777Y-24103150D01*
X8755777Y-24103150D02*
X8774825Y-24112674D01*
X8774825Y-24112674D02*
X8784348Y-24131722D01*
X8784348Y-24131722D02*
X8784348Y-24236484D01*
X8879586Y-24236484D02*
X8879586Y-24103150D01*
X8879586Y-24122198D02*
X8889110Y-24112674D01*
X8889110Y-24112674D02*
X8908158Y-24103150D01*
X8908158Y-24103150D02*
X8936729Y-24103150D01*
X8936729Y-24103150D02*
X8955777Y-24112674D01*
X8955777Y-24112674D02*
X8965301Y-24131722D01*
X8965301Y-24131722D02*
X8965301Y-24236484D01*
X8965301Y-24131722D02*
X8974825Y-24112674D01*
X8974825Y-24112674D02*
X8993872Y-24103150D01*
X8993872Y-24103150D02*
X9022444Y-24103150D01*
X9022444Y-24103150D02*
X9041491Y-24112674D01*
X9041491Y-24112674D02*
X9051015Y-24131722D01*
X9051015Y-24131722D02*
X9051015Y-24236484D01*
X9441491Y-24026960D02*
X9270063Y-24284103D01*
X9698634Y-24036484D02*
X9717682Y-24036484D01*
X9717682Y-24036484D02*
X9736729Y-24046008D01*
X9736729Y-24046008D02*
X9746253Y-24055531D01*
X9746253Y-24055531D02*
X9755777Y-24074579D01*
X9755777Y-24074579D02*
X9765301Y-24112674D01*
X9765301Y-24112674D02*
X9765301Y-24160293D01*
X9765301Y-24160293D02*
X9755777Y-24198388D01*
X9755777Y-24198388D02*
X9746253Y-24217436D01*
X9746253Y-24217436D02*
X9736729Y-24226960D01*
X9736729Y-24226960D02*
X9717682Y-24236484D01*
X9717682Y-24236484D02*
X9698634Y-24236484D01*
X9698634Y-24236484D02*
X9679587Y-24226960D01*
X9679587Y-24226960D02*
X9670063Y-24217436D01*
X9670063Y-24217436D02*
X9660539Y-24198388D01*
X9660539Y-24198388D02*
X9651015Y-24160293D01*
X9651015Y-24160293D02*
X9651015Y-24112674D01*
X9651015Y-24112674D02*
X9660539Y-24074579D01*
X9660539Y-24074579D02*
X9670063Y-24055531D01*
X9670063Y-24055531D02*
X9679587Y-24046008D01*
X9679587Y-24046008D02*
X9698634Y-24036484D01*
X9851015Y-24217436D02*
X9860539Y-24226960D01*
X9860539Y-24226960D02*
X9851015Y-24236484D01*
X9851015Y-24236484D02*
X9841491Y-24226960D01*
X9841491Y-24226960D02*
X9851015Y-24217436D01*
X9851015Y-24217436D02*
X9851015Y-24236484D01*
X10051015Y-24236484D02*
X9936729Y-24236484D01*
X9993872Y-24236484D02*
X9993872Y-24036484D01*
X9993872Y-24036484D02*
X9974825Y-24065055D01*
X9974825Y-24065055D02*
X9955777Y-24084103D01*
X9955777Y-24084103D02*
X9936729Y-24093627D01*
X10174825Y-24036484D02*
X10193872Y-24036484D01*
X10193872Y-24036484D02*
X10212920Y-24046008D01*
X10212920Y-24046008D02*
X10222444Y-24055531D01*
X10222444Y-24055531D02*
X10231968Y-24074579D01*
X10231968Y-24074579D02*
X10241491Y-24112674D01*
X10241491Y-24112674D02*
X10241491Y-24160293D01*
X10241491Y-24160293D02*
X10231968Y-24198388D01*
X10231968Y-24198388D02*
X10222444Y-24217436D01*
X10222444Y-24217436D02*
X10212920Y-24226960D01*
X10212920Y-24226960D02*
X10193872Y-24236484D01*
X10193872Y-24236484D02*
X10174825Y-24236484D01*
X10174825Y-24236484D02*
X10155777Y-24226960D01*
X10155777Y-24226960D02*
X10146253Y-24217436D01*
X10146253Y-24217436D02*
X10136729Y-24198388D01*
X10136729Y-24198388D02*
X10127206Y-24160293D01*
X10127206Y-24160293D02*
X10127206Y-24112674D01*
X10127206Y-24112674D02*
X10136729Y-24074579D01*
X10136729Y-24074579D02*
X10146253Y-24055531D01*
X10146253Y-24055531D02*
X10155777Y-24046008D01*
X10155777Y-24046008D02*
X10174825Y-24036484D01*
X10412920Y-24036484D02*
X10374825Y-24036484D01*
X10374825Y-24036484D02*
X10355777Y-24046008D01*
X10355777Y-24046008D02*
X10346253Y-24055531D01*
X10346253Y-24055531D02*
X10327206Y-24084103D01*
X10327206Y-24084103D02*
X10317682Y-24122198D01*
X10317682Y-24122198D02*
X10317682Y-24198388D01*
X10317682Y-24198388D02*
X10327206Y-24217436D01*
X10327206Y-24217436D02*
X10336729Y-24226960D01*
X10336729Y-24226960D02*
X10355777Y-24236484D01*
X10355777Y-24236484D02*
X10393872Y-24236484D01*
X10393872Y-24236484D02*
X10412920Y-24226960D01*
X10412920Y-24226960D02*
X10422444Y-24217436D01*
X10422444Y-24217436D02*
X10431968Y-24198388D01*
X10431968Y-24198388D02*
X10431968Y-24150769D01*
X10431968Y-24150769D02*
X10422444Y-24131722D01*
X10422444Y-24131722D02*
X10412920Y-24122198D01*
X10412920Y-24122198D02*
X10393872Y-24112674D01*
X10393872Y-24112674D02*
X10355777Y-24112674D01*
X10355777Y-24112674D02*
X10336729Y-24122198D01*
X10336729Y-24122198D02*
X10327206Y-24131722D01*
X10327206Y-24131722D02*
X10317682Y-24150769D01*
X10498634Y-24036484D02*
X10622444Y-24036484D01*
X10622444Y-24036484D02*
X10555777Y-24112674D01*
X10555777Y-24112674D02*
X10584349Y-24112674D01*
X10584349Y-24112674D02*
X10603396Y-24122198D01*
X10603396Y-24122198D02*
X10612920Y-24131722D01*
X10612920Y-24131722D02*
X10622444Y-24150769D01*
X10622444Y-24150769D02*
X10622444Y-24198388D01*
X10622444Y-24198388D02*
X10612920Y-24217436D01*
X10612920Y-24217436D02*
X10603396Y-24226960D01*
X10603396Y-24226960D02*
X10584349Y-24236484D01*
X10584349Y-24236484D02*
X10527206Y-24236484D01*
X10527206Y-24236484D02*
X10508158Y-24226960D01*
X10508158Y-24226960D02*
X10498634Y-24217436D01*
X10698634Y-24036484D02*
X10698634Y-24074579D01*
X10774825Y-24036484D02*
X10774825Y-24074579D01*
X11070063Y-24312674D02*
X11060539Y-24303150D01*
X11060539Y-24303150D02*
X11041491Y-24274579D01*
X11041491Y-24274579D02*
X11031968Y-24255531D01*
X11031968Y-24255531D02*
X11022444Y-24226960D01*
X11022444Y-24226960D02*
X11012920Y-24179341D01*
X11012920Y-24179341D02*
X11012920Y-24141246D01*
X11012920Y-24141246D02*
X11022444Y-24093627D01*
X11022444Y-24093627D02*
X11031968Y-24065055D01*
X11031968Y-24065055D02*
X11041491Y-24046008D01*
X11041491Y-24046008D02*
X11060539Y-24017436D01*
X11060539Y-24017436D02*
X11070063Y-24007912D01*
X11231968Y-24103150D02*
X11231968Y-24236484D01*
X11184349Y-24026960D02*
X11136730Y-24169817D01*
X11136730Y-24169817D02*
X11260539Y-24169817D01*
X11422444Y-24103150D02*
X11422444Y-24236484D01*
X11374825Y-24026960D02*
X11327206Y-24169817D01*
X11327206Y-24169817D02*
X11451015Y-24169817D01*
X11679587Y-24236484D02*
X11679587Y-24036484D01*
X11765301Y-24236484D02*
X11765301Y-24131722D01*
X11765301Y-24131722D02*
X11755777Y-24112674D01*
X11755777Y-24112674D02*
X11736730Y-24103150D01*
X11736730Y-24103150D02*
X11708158Y-24103150D01*
X11708158Y-24103150D02*
X11689110Y-24112674D01*
X11689110Y-24112674D02*
X11679587Y-24122198D01*
X11889110Y-24236484D02*
X11870063Y-24226960D01*
X11870063Y-24226960D02*
X11860539Y-24217436D01*
X11860539Y-24217436D02*
X11851015Y-24198388D01*
X11851015Y-24198388D02*
X11851015Y-24141246D01*
X11851015Y-24141246D02*
X11860539Y-24122198D01*
X11860539Y-24122198D02*
X11870063Y-24112674D01*
X11870063Y-24112674D02*
X11889110Y-24103150D01*
X11889110Y-24103150D02*
X11917682Y-24103150D01*
X11917682Y-24103150D02*
X11936730Y-24112674D01*
X11936730Y-24112674D02*
X11946253Y-24122198D01*
X11946253Y-24122198D02*
X11955777Y-24141246D01*
X11955777Y-24141246D02*
X11955777Y-24198388D01*
X11955777Y-24198388D02*
X11946253Y-24217436D01*
X11946253Y-24217436D02*
X11936730Y-24226960D01*
X11936730Y-24226960D02*
X11917682Y-24236484D01*
X11917682Y-24236484D02*
X11889110Y-24236484D01*
X12070063Y-24236484D02*
X12051015Y-24226960D01*
X12051015Y-24226960D02*
X12041491Y-24207912D01*
X12041491Y-24207912D02*
X12041491Y-24036484D01*
X12222444Y-24226960D02*
X12203396Y-24236484D01*
X12203396Y-24236484D02*
X12165301Y-24236484D01*
X12165301Y-24236484D02*
X12146253Y-24226960D01*
X12146253Y-24226960D02*
X12136730Y-24207912D01*
X12136730Y-24207912D02*
X12136730Y-24131722D01*
X12136730Y-24131722D02*
X12146253Y-24112674D01*
X12146253Y-24112674D02*
X12165301Y-24103150D01*
X12165301Y-24103150D02*
X12203396Y-24103150D01*
X12203396Y-24103150D02*
X12222444Y-24112674D01*
X12222444Y-24112674D02*
X12231968Y-24131722D01*
X12231968Y-24131722D02*
X12231968Y-24150769D01*
X12231968Y-24150769D02*
X12136730Y-24169817D01*
X12308158Y-24226960D02*
X12327206Y-24236484D01*
X12327206Y-24236484D02*
X12365301Y-24236484D01*
X12365301Y-24236484D02*
X12384349Y-24226960D01*
X12384349Y-24226960D02*
X12393872Y-24207912D01*
X12393872Y-24207912D02*
X12393872Y-24198388D01*
X12393872Y-24198388D02*
X12384349Y-24179341D01*
X12384349Y-24179341D02*
X12365301Y-24169817D01*
X12365301Y-24169817D02*
X12336730Y-24169817D01*
X12336730Y-24169817D02*
X12317682Y-24160293D01*
X12317682Y-24160293D02*
X12308158Y-24141246D01*
X12308158Y-24141246D02*
X12308158Y-24131722D01*
X12308158Y-24131722D02*
X12317682Y-24112674D01*
X12317682Y-24112674D02*
X12336730Y-24103150D01*
X12336730Y-24103150D02*
X12365301Y-24103150D01*
X12365301Y-24103150D02*
X12384349Y-24112674D01*
X12460539Y-24312674D02*
X12470063Y-24303150D01*
X12470063Y-24303150D02*
X12489111Y-24274579D01*
X12489111Y-24274579D02*
X12498634Y-24255531D01*
X12498634Y-24255531D02*
X12508158Y-24226960D01*
X12508158Y-24226960D02*
X12517682Y-24179341D01*
X12517682Y-24179341D02*
X12517682Y-24141246D01*
X12517682Y-24141246D02*
X12508158Y-24093627D01*
X12508158Y-24093627D02*
X12498634Y-24065055D01*
X12498634Y-24065055D02*
X12489111Y-24046008D01*
X12489111Y-24046008D02*
X12470063Y-24017436D01*
X12470063Y-24017436D02*
X12460539Y-24007912D01*
X12822444Y-24312674D02*
X12812920Y-24303150D01*
X12812920Y-24303150D02*
X12793872Y-24274579D01*
X12793872Y-24274579D02*
X12784349Y-24255531D01*
X12784349Y-24255531D02*
X12774825Y-24226960D01*
X12774825Y-24226960D02*
X12765301Y-24179341D01*
X12765301Y-24179341D02*
X12765301Y-24141246D01*
X12765301Y-24141246D02*
X12774825Y-24093627D01*
X12774825Y-24093627D02*
X12784349Y-24065055D01*
X12784349Y-24065055D02*
X12793872Y-24046008D01*
X12793872Y-24046008D02*
X12812920Y-24017436D01*
X12812920Y-24017436D02*
X12822444Y-24007912D01*
X12898634Y-24103150D02*
X12898634Y-24236484D01*
X12898634Y-24122198D02*
X12908158Y-24112674D01*
X12908158Y-24112674D02*
X12927206Y-24103150D01*
X12927206Y-24103150D02*
X12955777Y-24103150D01*
X12955777Y-24103150D02*
X12974825Y-24112674D01*
X12974825Y-24112674D02*
X12984349Y-24131722D01*
X12984349Y-24131722D02*
X12984349Y-24236484D01*
X13108158Y-24236484D02*
X13089111Y-24226960D01*
X13089111Y-24226960D02*
X13079587Y-24217436D01*
X13079587Y-24217436D02*
X13070063Y-24198388D01*
X13070063Y-24198388D02*
X13070063Y-24141246D01*
X13070063Y-24141246D02*
X13079587Y-24122198D01*
X13079587Y-24122198D02*
X13089111Y-24112674D01*
X13089111Y-24112674D02*
X13108158Y-24103150D01*
X13108158Y-24103150D02*
X13136730Y-24103150D01*
X13136730Y-24103150D02*
X13155777Y-24112674D01*
X13155777Y-24112674D02*
X13165301Y-24122198D01*
X13165301Y-24122198D02*
X13174825Y-24141246D01*
X13174825Y-24141246D02*
X13174825Y-24198388D01*
X13174825Y-24198388D02*
X13165301Y-24217436D01*
X13165301Y-24217436D02*
X13155777Y-24226960D01*
X13155777Y-24226960D02*
X13136730Y-24236484D01*
X13136730Y-24236484D02*
X13108158Y-24236484D01*
X13231968Y-24103150D02*
X13308158Y-24103150D01*
X13260539Y-24036484D02*
X13260539Y-24207912D01*
X13260539Y-24207912D02*
X13270063Y-24226960D01*
X13270063Y-24226960D02*
X13289111Y-24236484D01*
X13289111Y-24236484D02*
X13308158Y-24236484D01*
X13527206Y-24103150D02*
X13527206Y-24303150D01*
X13527206Y-24112674D02*
X13546253Y-24103150D01*
X13546253Y-24103150D02*
X13584349Y-24103150D01*
X13584349Y-24103150D02*
X13603396Y-24112674D01*
X13603396Y-24112674D02*
X13612920Y-24122198D01*
X13612920Y-24122198D02*
X13622444Y-24141246D01*
X13622444Y-24141246D02*
X13622444Y-24198388D01*
X13622444Y-24198388D02*
X13612920Y-24217436D01*
X13612920Y-24217436D02*
X13603396Y-24226960D01*
X13603396Y-24226960D02*
X13584349Y-24236484D01*
X13584349Y-24236484D02*
X13546253Y-24236484D01*
X13546253Y-24236484D02*
X13527206Y-24226960D01*
X13736730Y-24236484D02*
X13717682Y-24226960D01*
X13717682Y-24226960D02*
X13708158Y-24207912D01*
X13708158Y-24207912D02*
X13708158Y-24036484D01*
X13898634Y-24236484D02*
X13898634Y-24131722D01*
X13898634Y-24131722D02*
X13889111Y-24112674D01*
X13889111Y-24112674D02*
X13870063Y-24103150D01*
X13870063Y-24103150D02*
X13831968Y-24103150D01*
X13831968Y-24103150D02*
X13812920Y-24112674D01*
X13898634Y-24226960D02*
X13879587Y-24236484D01*
X13879587Y-24236484D02*
X13831968Y-24236484D01*
X13831968Y-24236484D02*
X13812920Y-24226960D01*
X13812920Y-24226960D02*
X13803396Y-24207912D01*
X13803396Y-24207912D02*
X13803396Y-24188865D01*
X13803396Y-24188865D02*
X13812920Y-24169817D01*
X13812920Y-24169817D02*
X13831968Y-24160293D01*
X13831968Y-24160293D02*
X13879587Y-24160293D01*
X13879587Y-24160293D02*
X13898634Y-24150769D01*
X13965301Y-24103150D02*
X14041492Y-24103150D01*
X13993873Y-24036484D02*
X13993873Y-24207912D01*
X13993873Y-24207912D02*
X14003396Y-24226960D01*
X14003396Y-24226960D02*
X14022444Y-24236484D01*
X14022444Y-24236484D02*
X14041492Y-24236484D01*
X14184349Y-24226960D02*
X14165301Y-24236484D01*
X14165301Y-24236484D02*
X14127206Y-24236484D01*
X14127206Y-24236484D02*
X14108158Y-24226960D01*
X14108158Y-24226960D02*
X14098634Y-24207912D01*
X14098634Y-24207912D02*
X14098634Y-24131722D01*
X14098634Y-24131722D02*
X14108158Y-24112674D01*
X14108158Y-24112674D02*
X14127206Y-24103150D01*
X14127206Y-24103150D02*
X14165301Y-24103150D01*
X14165301Y-24103150D02*
X14184349Y-24112674D01*
X14184349Y-24112674D02*
X14193873Y-24131722D01*
X14193873Y-24131722D02*
X14193873Y-24150769D01*
X14193873Y-24150769D02*
X14098634Y-24169817D01*
X14365301Y-24236484D02*
X14365301Y-24036484D01*
X14365301Y-24226960D02*
X14346254Y-24236484D01*
X14346254Y-24236484D02*
X14308158Y-24236484D01*
X14308158Y-24236484D02*
X14289111Y-24226960D01*
X14289111Y-24226960D02*
X14279587Y-24217436D01*
X14279587Y-24217436D02*
X14270063Y-24198388D01*
X14270063Y-24198388D02*
X14270063Y-24141246D01*
X14270063Y-24141246D02*
X14279587Y-24122198D01*
X14279587Y-24122198D02*
X14289111Y-24112674D01*
X14289111Y-24112674D02*
X14308158Y-24103150D01*
X14308158Y-24103150D02*
X14346254Y-24103150D01*
X14346254Y-24103150D02*
X14365301Y-24112674D01*
X14441492Y-24312674D02*
X14451015Y-24303150D01*
X14451015Y-24303150D02*
X14470063Y-24274579D01*
X14470063Y-24274579D02*
X14479587Y-24255531D01*
X14479587Y-24255531D02*
X14489111Y-24226960D01*
X14489111Y-24226960D02*
X14498634Y-24179341D01*
X14498634Y-24179341D02*
X14498634Y-24141246D01*
X14498634Y-24141246D02*
X14489111Y-24093627D01*
X14489111Y-24093627D02*
X14479587Y-24065055D01*
X14479587Y-24065055D02*
X14470063Y-24046008D01*
X14470063Y-24046008D02*
X14451015Y-24017436D01*
X14451015Y-24017436D02*
X14441492Y-24007912D01*
M02*
