M48
; DRILL file {KiCad 7.0.7} date Wed Oct 11 17:25:27 2023
; FORMAT={-:-/ absolute / inch / decimal}
; #@! TF.CreationDate,2023-10-11T17:25:27+01:00
; #@! TF.GenerationSoftware,Kicad,Pcbnew,7.0.7
; #@! TF.FileFunction,NonPlated,1,2,NPTH
FMAT,2
INCH
; #@! TA.AperFunction,NonPlated,NPTH,ComponentDrill
T1C0.1063
%
G90
G05
T1
X3.0512Y-1.2795
X3.0512Y-3.0512
X3.0512Y-3.3465
X3.0512Y-5.1181
X3.0512Y-5.4134
X3.0512Y-9.1535
X4.8228Y-3.3465
X4.8228Y-5.1181
X5.0197Y-3.3465
X5.0197Y-5.1181
X6.7913Y-1.2795
X6.7913Y-3.0512
X6.7913Y-3.3465
X6.7913Y-5.1181
X6.7913Y-5.4134
X6.7913Y-9.1535
X7.0866Y-1.2795
X7.0866Y-3.0512
X7.0866Y-3.3465
X7.0866Y-5.1181
X7.0866Y-5.4134
X7.0866Y-9.1535
X8.8583Y-3.3465
X8.8583Y-5.1181
X9.0551Y-3.3465
X9.0551Y-5.1181
X10.8268Y-1.2795
X10.8268Y-3.0512
X10.8268Y-3.3465
X10.8268Y-5.1181
X10.8268Y-5.4134
X10.8268Y-9.1535
X11.122Y-1.2795
X11.122Y-3.0512
X11.122Y-3.3465
X11.122Y-5.1181
X11.122Y-5.4134
X11.122Y-9.1535
X12.8937Y-1.2795
X12.8937Y-3.0512
X12.8937Y-3.3465
X12.8937Y-5.1181
X12.8937Y-5.4134
X12.8937Y-9.1535
T0
M30
